<?xml version="1.0" standalone="no"?>
<!DOCTYPE svg PUBLIC "-//W3C//DTD SVG 20010904//EN"
 "http://www.w3.org/TR/2001/REC-SVG-20010904/DTD/svg10.dtd">
<svg version="1.0" xmlns="http://www.w3.org/2000/svg"
 width="16.000000pt" height="16.000000pt" viewBox="0 0 16.000000 16.000000"
 preserveAspectRatio="xMidYMid meet">

<g transform="translate(0.000000,16.000000) scale(0.100000,-0.100000)"
fill="#000000" stroke="none">
<path d="M137 142 c-12 -13 -27 -17 -50 -14 -25 3 -41 -2 -63 -21 -28 -25 -29
-25 -10 -46 19 -21 19 -21 0 -43 l-19 -23 23 20 c15 13 35 18 56 17 24 -2 42
4 62 21 28 25 29 25 10 46 -18 20 -18 22 -1 41 10 11 16 20 13 20 -3 0 -12 -8
-21 -18z m-57 -31 c-17 -5 -27 -16 -30 -34 -5 -25 -7 -27 -24 -14 -18 13 -18
14 5 35 12 12 34 22 48 21 l26 -1 -25 -7z m70 -26 c0 -14 -48 -45 -69 -44
l-26 1 25 7 c18 5 26 15 28 34 3 23 6 26 23 17 10 -6 19 -13 19 -15z m-52 -9
c3 -13 -1 -17 -14 -14 -11 2 -20 11 -22 22 -3 13 1 17 14 14 11 -2 20 -11 22
-22z"/>
</g>
</svg>
